<?xml version="1.0" standalone="no"?>
<!DOCTYPE svg PUBLIC "-//W3C//DTD SVG 20010904//EN"
 "http://www.w3.org/TR/2001/REC-SVG-20010904/DTD/svg10.dtd">
<svg version="1.0" xmlns="http://www.w3.org/2000/svg"
 width="176.000000pt" height="176.000000pt" viewBox="0 0 176.000000 176.000000"
 preserveAspectRatio="xMidYMid meet">
<metadata>
Created by potrace 1.11, written by Peter Selinger 2001-2013
</metadata>
<g transform="translate(0.000000,176.000000) scale(0.100000,-0.100000)"
fill="#000000" stroke="none">
<path d="M841 1737 c-50 -17 -74 -55 -77 -122 -1 -32 -5 -59 -8 -62 -2 -3 -15
2 -28 11 -45 32 -133 12 -160 -37 -9 -15 -13 -85 -13 -237 -1 -126 -5 -216
-11 -217 -5 -1 -31 4 -59 12 -79 23 -173 8 -249 -39 l-39 -23 39 -13 c77 -25
133 -76 169 -155 22 -48 28 -83 39 -205 15 -160 19 -195 21 -200 2 -3 6 -26
10 -50 4 -25 16 -72 27 -105 51 -153 143 -243 276 -270 174 -36 325 14 415
136 31 43 73 140 82 191 3 18 10 51 15 73 4 22 11 72 14 110 6 70 11 114 22
215 12 116 73 201 178 250 l60 27 -67 32 c-97 46 -179 48 -277 7 -13 -5 -15
21 -14 206 1 236 -4 266 -55 292 -49 26 -120 17 -143 -18 -5 -7 -8 -3 -9 9 -5
126 -17 157 -74 181 -40 16 -40 16 -84 1z m79 -22 c54 -28 55 -33 56 -384 0
-210 4 -326 11 -328 6 -2 10 78 10 236 0 167 3 248 12 269 13 30 47 52 82 52
28 0 75 -26 85 -47 4 -10 9 -115 10 -233 1 -118 3 -224 3 -236 1 -21 1 -21 52
4 66 33 137 36 207 10 28 -11 52 -23 52 -27 0 -5 -12 -14 -27 -20 -59 -25
-122 -98 -148 -172 -17 -48 -24 -95 -40 -299 -28 -328 -147 -490 -374 -504
-170 -11 -290 56 -361 199 -49 98 -64 172 -85 410 -10 116 -17 157 -31 198
-24 68 -90 144 -146 168 -38 16 -35 24 14 44 72 29 151 27 214 -5 l54 -27 1
26 c1 14 2 121 3 236 1 182 3 215 18 237 34 51 130 46 158 -7 10 -18 13 -89
13 -270 0 -135 4 -245 9 -245 10 0 9 -33 11 341 2 356 1 349 62 375 38 17 40
17 75 -1z"/>
<path d="M846 1604 c-9 -8 -16 -23 -16 -33 0 -21 30 -51 52 -51 19 0 48 32 48
53 0 21 -27 47 -50 47 -10 0 -26 -7 -34 -16z m58 -21 c4 -9 0 -23 -9 -32 -13
-14 -17 -14 -30 0 -19 19 -10 49 15 49 10 0 21 -8 24 -17z"/>
<path d="M638 1459 c-28 -16 -23 -67 6 -81 46 -21 85 18 63 63 -14 27 -43 34
-69 18z m51 -28 c8 -14 7 -22 -4 -31 -19 -16 -45 -6 -45 18 0 36 33 45 49 13z"/>
<path d="M846 1454 c-31 -30 -9 -84 34 -84 24 0 50 26 50 50 0 24 -26 50 -50
50 -10 0 -26 -7 -34 -16z m59 -25 c6 -19 -7 -38 -26 -39 -14 0 -31 31 -25 45
8 23 44 18 51 -6z"/>
<path d="M1054 1445 c-15 -23 -15 -27 0 -50 20 -30 49 -32 76 -5 19 19 18 40
-3 68 -16 21 -55 14 -73 -13z m64 -23 c4 -28 -24 -40 -45 -19 -14 13 -14 19
-3 32 18 22 44 15 48 -13z"/>
<path d="M633 1308 c-19 -25 -21 -46 -6 -67 33 -48 105 -3 80 49 -14 28 -58
39 -74 18z m56 -21 c15 -19 -10 -53 -33 -44 -16 6 -22 38 -9 50 10 11 30 8 42
-6z"/>
<path d="M842 1300 c-16 -26 -15 -45 4 -64 20 -20 48 -20 68 0 9 8 16 24 16
34 0 45 -64 67 -88 30z m62 -16 c7 -19 -10 -44 -29 -44 -16 0 -26 25 -19 45 8
20 40 19 48 -1z"/>
<path d="M1056 1299 c-33 -47 32 -107 72 -67 15 15 15 61 0 76 -19 19 -55 14
-72 -9z m62 -27 c4 -30 -26 -42 -44 -17 -10 14 -11 22 -2 32 16 20 42 12 46
-15z"/>
<path d="M638 1159 c-22 -12 -24 -62 -3 -79 20 -16 62 -5 75 21 9 16 8 26 -5
45 -16 25 -39 30 -67 13z m47 -39 c0 -29 -32 -41 -41 -16 -9 24 4 48 23 44 12
-2 18 -12 18 -28z"/>
<path d="M845 1150 c-22 -24 -13 -66 15 -75 52 -16 90 36 55 75 -10 11 -26 20
-35 20 -9 0 -25 -9 -35 -20z m54 -14 c12 -14 5 -46 -9 -46 -35 0 -50 26 -28
48 15 15 23 15 37 -2z"/>
<path d="M1054 1145 c-15 -23 -15 -27 0 -50 28 -43 86 -26 86 25 0 51 -58 68
-86 25z m64 -21 c4 -27 -26 -40 -46 -20 -13 13 -13 18 -2 31 18 21 44 15 48
-11z"/>
<path d="M752 857 c-99 -99 -126 -132 -136 -167 -30 -102 43 -203 145 -203 21
0 39 -2 39 -4 0 -2 -24 -27 -54 -56 -64 -64 -77 -86 -78 -136 -1 -92 98 -150
182 -106 27 14 33 14 60 0 40 -20 89 -19 127 5 40 24 54 50 55 100 0 47 -14
71 -82 140 -27 28 -50 52 -50 54 0 2 18 4 41 4 100 2 170 96 145 197 -7 32
-35 66 -134 168 -69 70 -128 127 -131 127 -4 0 -62 -55 -129 -123z m245 -19
c122 -124 133 -140 133 -193 0 -111 -121 -173 -215 -110 -33 23 -39 24 -54 11
-69 -63 -175 -45 -217 36 -17 32 -18 91 -3 121 11 22 229 247 239 247 3 0 55
-51 117 -112z m-21 -404 c89 -91 108 -128 91 -177 -21 -61 -119 -86 -167 -42
-18 16 -21 16 -49 -4 -77 -55 -168 3 -162 105 1 21 172 204 192 204 6 0 48
-39 95 -86z"/>
</g>
</svg>
