<?xml version="1.0" encoding="utf-8"?>
<!-- Generator: Adobe Illustrator 21.0.0, SVG Export Plug-In . SVG Version: 6.00 Build 0)  -->
<svg version="1.1" id="Layer_1" xmlns="http://www.w3.org/2000/svg" xmlns:xlink="http://www.w3.org/1999/xlink" x="0px" y="0px"
	 viewBox="0 0 176 176" style="enable-background:new 0 0 176 176;" xml:space="preserve">
<style type="text/css">
	.st0{fill:none;stroke:#007799;stroke-width:2.1126;stroke-miterlimit:10;}
</style>
<g>
	<g>
		<circle class="st0" cx="88" cy="88" r="75.3"/>
		<circle class="st0" cx="88" cy="88" r="64"/>
		<line class="st0" x1="88" y1="12.7" x2="88" y2="24"/>
		<line class="st0" x1="74.9" y1="13.8" x2="76.9" y2="25"/>
		<line class="st0" x1="62.2" y1="17.2" x2="66.1" y2="27.9"/>
		<line class="st0" x1="50.3" y1="22.8" x2="56" y2="32.6"/>
		<line class="st0" x1="39.6" y1="30.3" x2="46.9" y2="39"/>
		<line class="st0" x1="30.3" y1="39.6" x2="39" y2="46.9"/>
		<line class="st0" x1="22.8" y1="50.3" x2="32.6" y2="56"/>
		<line class="st0" x1="17.2" y1="62.2" x2="27.9" y2="66.1"/>
		<line class="st0" x1="13.8" y1="74.9" x2="25" y2="76.9"/>
		<line class="st0" x1="12.7" y1="88" x2="24" y2="88"/>
		<line class="st0" x1="13.8" y1="101.1" x2="25" y2="99.1"/>
		<line class="st0" x1="17.2" y1="113.8" x2="27.9" y2="109.9"/>
		<line class="st0" x1="22.8" y1="125.7" x2="32.6" y2="120"/>
		<line class="st0" x1="30.3" y1="136.4" x2="39" y2="129.1"/>
		<line class="st0" x1="39.6" y1="145.7" x2="46.9" y2="137"/>
		<line class="st0" x1="50.3" y1="153.2" x2="56" y2="143.4"/>
		<line class="st0" x1="62.2" y1="158.8" x2="66.1" y2="148.1"/>
		<line class="st0" x1="74.9" y1="162.2" x2="76.9" y2="151"/>
		<line class="st0" x1="88" y1="163.3" x2="88" y2="152"/>
		<line class="st0" x1="101.1" y1="162.2" x2="99.1" y2="151"/>
		<line class="st0" x1="113.8" y1="158.8" x2="109.9" y2="148.1"/>
		<line class="st0" x1="125.7" y1="153.2" x2="120" y2="143.4"/>
		<line class="st0" x1="136.4" y1="145.7" x2="129.1" y2="137"/>
		<line class="st0" x1="145.7" y1="136.4" x2="137" y2="129.1"/>
		<line class="st0" x1="153.2" y1="125.7" x2="143.4" y2="120"/>
		<line class="st0" x1="158.8" y1="113.8" x2="148.1" y2="109.9"/>
		<line class="st0" x1="162.2" y1="101.1" x2="151" y2="99.1"/>
		<line class="st0" x1="163.3" y1="88" x2="152" y2="88"/>
		<line class="st0" x1="162.2" y1="74.9" x2="151" y2="76.9"/>
		<line class="st0" x1="158.8" y1="62.2" x2="148.1" y2="66.1"/>
		<line class="st0" x1="153.2" y1="50.3" x2="143.4" y2="56"/>
		<line class="st0" x1="145.7" y1="39.6" x2="137" y2="46.9"/>
		<line class="st0" x1="136.4" y1="30.3" x2="129.1" y2="39"/>
		<line class="st0" x1="125.7" y1="22.8" x2="120" y2="32.6"/>
		<line class="st0" x1="113.8" y1="17.2" x2="109.9" y2="27.9"/>
		<line class="st0" x1="101.1" y1="13.8" x2="99.1" y2="25"/>
		<g>
			<path class="st0" d="M72.3,82c0,0,9.2-9.2,13.5-2c4.2,7.2-7.9,9.2-4.8,10.4c14.3,4.4,4,18.4-4.3,14.5c-8.3-3.9-9.1-13.1-9.1-13.1
				"/>
			<path class="st0" d="M84.2,91.9c0,0,5.4,2.5,7.9-2.1c2.5-4.6,12.3-13.6,13.9,0c1.4,25.6-14.1,5.9-14.1,5.9"/>
			<path class="st0" d="M85.2,71.3c0,0,2.9,11.2,15.4,4.4"/>
			<line class="st0" x1="91.3" y1="70.4" x2="93.7" y2="72.8"/>
		</g>
		
			<rect x="42.7" y="42.7" transform="matrix(0.7071 -0.7071 0.7071 0.7071 -36.4501 87.9998)" class="st0" width="90.5" height="90.5"/>
		<rect x="56.5" y="56.5" class="st0" width="63.1" height="63.1"/>
		<g>
			<line class="st0" x1="25" y1="88" x2="56" y2="88"/>
			<line class="st0" x1="120" y1="88" x2="151" y2="88"/>
		</g>
		<g>
			<line class="st0" x1="88" y1="25" x2="88" y2="56"/>
			<line class="st0" x1="88" y1="120" x2="88" y2="151"/>
		</g>
	</g>
</g>
</svg>
